<svg width="33" height="33" viewBox="0 0 33 33" fill="none" xmlns="http://www.w3.org/2000/svg">
<rect x="0.375" y="0.375" width="32.25" height="32.25" rx="16.125" stroke="white" stroke-width="0.75"/>
<path d="M22.2891 13.4688V15.8125C22.2891 15.9368 22.2397 16.056 22.1518 16.144C22.0639 16.2319 21.9446 16.2812 21.8203 16.2812C20.8411 16.2835 19.876 16.0481 19.0078 15.5951V17.9219C19.0078 19.1029 18.5386 20.2356 17.7035 21.0707C16.8684 21.9058 15.7357 22.375 14.5547 22.375C13.3736 22.375 12.241 21.9058 11.4059 21.0707C10.5707 20.2356 10.1016 19.1029 10.1016 17.9219C10.1016 15.7598 11.6783 13.8484 13.7695 13.4758C13.837 13.4638 13.9063 13.4667 13.9725 13.4844C14.0387 13.5021 14.1002 13.5341 14.1527 13.5781C14.2052 13.6221 14.2474 13.6771 14.2764 13.7392C14.3053 13.8013 14.3203 13.869 14.3203 13.9375V16.4389C14.3203 16.5276 14.2952 16.6145 14.2478 16.6895C14.2004 16.7645 14.1327 16.8245 14.0525 16.8625C13.8631 16.9524 13.7012 17.0914 13.5838 17.2651C13.4663 17.4389 13.3977 17.6409 13.385 17.8503C13.3723 18.0596 13.4159 18.2685 13.5114 18.4551C13.607 18.6418 13.7508 18.7994 13.928 18.9116C14.1052 19.0237 14.3093 19.0863 14.5189 19.0927C14.7285 19.0991 14.9359 19.0491 15.1197 18.948C15.3034 18.8469 15.4566 18.6984 15.5634 18.5179C15.6701 18.3374 15.7265 18.1316 15.7266 17.9219V10.1875C15.7266 10.0632 15.7759 9.94395 15.8639 9.85604C15.9518 9.76814 16.071 9.71875 16.1953 9.71875H18.5391C18.6634 9.71875 18.7826 9.76814 18.8705 9.85604C18.9584 9.94395 19.0078 10.0632 19.0078 10.1875C19.0086 10.9332 19.3052 11.6481 19.8324 12.1754C20.3597 12.7027 21.0746 12.9992 21.8203 13C21.9446 13 22.0639 13.0494 22.1518 13.1373C22.2397 13.2252 22.2891 13.3444 22.2891 13.4688Z" fill="white"/>
</svg>
