<svg width="15" height="15" viewBox="0 0 15 15" fill="none" xmlns="http://www.w3.org/2000/svg">
<path d="M13.125 2.8125H1.875C1.75068 2.8125 1.63145 2.86189 1.54354 2.94979C1.45564 3.0377 1.40625 3.15693 1.40625 3.28125V11.25C1.40625 11.4986 1.50502 11.7371 1.68084 11.9129C1.85665 12.0887 2.09511 12.1875 2.34375 12.1875H12.6562C12.9049 12.1875 13.1433 12.0887 13.3192 11.9129C13.495 11.7371 13.5938 11.4986 13.5938 11.25V3.28125C13.5938 3.15693 13.5444 3.0377 13.4565 2.94979C13.3685 2.86189 13.2493 2.8125 13.125 2.8125ZM11.9197 3.75L7.5 7.80176L3.08027 3.75H11.9197ZM12.6562 11.25H2.34375V4.34707L7.18301 8.7832C7.26949 8.86259 7.38261 8.90664 7.5 8.90664C7.61739 8.90664 7.73051 8.86259 7.81699 8.7832L12.6562 4.34707V11.25Z" fill="white"/>
</svg>
