<svg width="33" height="33" viewBox="0 0 33 33" fill="none" xmlns="http://www.w3.org/2000/svg">
<rect x="0.375" y="0.375" width="32.25" height="32.25" rx="16.125" stroke="white" stroke-width="0.75"/>
<path d="M17.9063 16.9688C17.9063 17.2469 17.8238 17.5188 17.6693 17.75C17.5147 17.9813 17.2951 18.1615 17.0382 18.268C16.7812 18.3744 16.4984 18.4022 16.2257 18.348C15.9529 18.2937 15.7023 18.1598 15.5056 17.9631C15.309 17.7665 15.175 17.5159 15.1208 17.2431C15.0665 16.9703 15.0944 16.6876 15.2008 16.4306C15.3072 16.1736 15.4875 15.954 15.7187 15.7995C15.95 15.645 16.2219 15.5625 16.5 15.5625C16.873 15.5625 17.2306 15.7107 17.4944 15.9744C17.7581 16.2381 17.9063 16.5958 17.9063 16.9688ZM22.5938 16.5C22.5938 17.7052 22.2364 18.8834 21.5668 19.8855C20.8972 20.8876 19.9455 21.6687 18.832 22.1299C17.7185 22.5911 16.4932 22.7118 15.3112 22.4767C14.1291 22.2415 13.0433 21.6612 12.1911 20.8089C11.3388 19.9567 10.7585 18.8709 10.5233 17.6888C10.2882 16.5068 10.4089 15.2815 10.8701 14.168C11.3313 13.0545 12.1124 12.1028 13.1145 11.4332C14.1166 10.7636 15.2948 10.4062 16.5 10.4062C18.1156 10.408 19.6646 11.0505 20.807 12.193C21.9495 13.3354 22.592 14.8844 22.5938 16.5ZM17.9063 15.0938C17.558 14.8326 17.144 14.6736 16.7105 14.6345C16.277 14.5954 15.8412 14.6778 15.4518 14.8724C15.0625 15.0671 14.7351 15.3663 14.5063 15.7366C14.2775 16.1068 14.1563 16.5335 14.1563 16.9688C14.1563 17.404 14.2775 17.8307 14.5063 18.2009C14.7351 18.5712 15.0625 18.8704 15.4518 19.0651C15.8412 19.2597 16.277 19.3421 16.7105 19.303C17.144 19.2639 17.558 19.1049 17.9063 18.8438C17.9063 18.9681 17.9556 19.0873 18.0435 19.1752C18.1315 19.2631 18.2507 19.3125 18.375 19.3125C18.4993 19.3125 18.6186 19.2631 18.7065 19.1752C18.7944 19.0873 18.8438 18.9681 18.8438 18.8438V15.0938C18.8439 14.5852 18.6786 14.0905 18.3729 13.6841C18.0672 13.2778 17.6377 12.9819 17.1491 12.8411C16.6605 12.7002 16.1393 12.7221 15.6642 12.9035C15.1892 13.0848 14.7859 13.4157 14.5154 13.8463C14.4518 13.9514 14.432 14.0774 14.4603 14.197C14.4886 14.3166 14.5628 14.4203 14.6668 14.4857C14.7708 14.5512 14.8964 14.5732 15.0165 14.5469C15.1366 14.5207 15.2415 14.4484 15.3088 14.3455C15.471 14.087 15.7129 13.8882 15.998 13.7793C16.2832 13.6703 16.596 13.6571 16.8893 13.7416C17.1826 13.8261 17.4404 14.0037 17.6239 14.2476C17.8073 14.4915 17.9064 14.7885 17.9063 15.0938ZM20.5318 18.9381C20.4325 18.8634 20.3076 18.8311 20.1845 18.8485C20.0615 18.8659 19.9504 18.9314 19.8756 19.0307C19.4826 19.5548 18.973 19.9803 18.3871 20.2733C17.8012 20.5664 17.1551 20.7189 16.5 20.7189C15.8449 20.7189 15.1988 20.5664 14.6129 20.2733C14.027 19.9803 13.5174 19.5548 13.1244 19.0307C13.088 18.98 13.0418 18.937 12.9886 18.9044C12.9353 18.8718 12.8761 18.8502 12.8144 18.8408C12.7526 18.8313 12.6897 18.8344 12.6291 18.8496C12.5686 18.8649 12.5117 18.8921 12.4618 18.9296C12.4119 18.9672 12.37 19.0143 12.3386 19.0683C12.3072 19.1222 12.2869 19.1819 12.2789 19.2439C12.2708 19.3058 12.2753 19.3687 12.2919 19.4289C12.3085 19.489 12.3369 19.5453 12.3756 19.5943C12.8559 20.2345 13.4786 20.7541 14.1945 21.1119C14.9104 21.4698 15.6997 21.6561 16.5 21.6561C17.3003 21.6561 18.0897 21.4698 18.8055 21.1119C19.5214 20.7541 20.1441 20.2345 20.6244 19.5943C20.6991 19.495 20.7314 19.3701 20.714 19.247C20.6966 19.124 20.6311 19.0129 20.5318 18.9381Z" fill="white"/>
</svg>
