<svg width="33" height="33" viewBox="0 0 33 33" fill="none" xmlns="http://www.w3.org/2000/svg">
<rect x="0.375" y="0.375" width="32.25" height="32.25" rx="16.125" stroke="white" stroke-width="0.75"/>
<g clip-path="url(#clip0_1_412)">
<path d="M16.7038 9C12.5919 9.00063 10.4062 11.635 10.4062 14.5075C10.4062 15.8394 11.1506 17.5013 12.3425 18.0281C12.6825 18.1812 12.6375 17.9944 12.93 16.8756C12.9435 16.8304 12.9447 16.7825 12.9335 16.7367C12.9222 16.6909 12.8991 16.6489 12.8663 16.615C11.1625 14.6444 12.5338 10.5931 16.4606 10.5931C22.1438 10.5931 21.0819 18.4569 17.4494 18.4569C16.5131 18.4569 15.8156 17.7219 16.0363 16.8125C16.3038 15.7294 16.8275 14.565 16.8275 13.7844C16.8275 11.8169 13.8963 12.1088 13.8963 14.7156C13.8963 15.5213 14.1813 16.065 14.1813 16.065C14.1813 16.065 13.2381 19.875 13.0631 20.5869C12.7669 21.7919 13.1031 23.7425 13.1325 23.9106C13.1506 24.0031 13.2544 24.0325 13.3125 23.9563C13.4056 23.8344 14.5456 22.2081 14.865 21.0325C14.9813 20.6044 15.4581 18.8669 15.4581 18.8669C15.7725 19.4344 16.6788 19.9094 17.6444 19.9094C20.5169 19.9094 22.5931 17.3844 22.5931 14.2513C22.5831 11.2475 20.0125 9 16.7038 9Z" fill="white"/>
</g>
<defs>
<clipPath id="clip0_1_412">
<rect width="15" height="15" fill="white" transform="translate(9 9)"/>
</clipPath>
</defs>
</svg>
