<svg width="33" height="33" viewBox="0 0 33 33" fill="none" xmlns="http://www.w3.org/2000/svg">
<rect x="0.375" y="0.375" width="32.25" height="32.25" rx="16.125" stroke="white" stroke-width="0.75"/>
<g clip-path="url(#clip0_1_400)">
<path d="M20.25 9H12.7502C10.6879 9 9.00024 10.6876 9.00024 12.7499V20.2501C9.00024 22.3118 10.6879 24 12.7502 24H20.25C22.3122 24 23.9999 22.3118 23.9999 20.2501V12.7499C23.9999 10.6876 22.3122 9 20.25 9ZM22.7498 20.2501C22.7498 21.6282 21.6288 22.75 20.25 22.75H12.7502C11.3719 22.75 10.2503 21.6282 10.2503 20.2501V12.7499C10.2503 11.3715 11.3719 10.25 12.7502 10.25H20.25C21.6288 10.25 22.7498 11.3715 22.7498 12.7499V20.2501Z" fill="white"/>
<path d="M20.5666 13.375C21.0843 13.375 21.504 12.9552 21.504 12.4375C21.504 11.9197 21.0843 11.5 20.5666 11.5C20.0488 11.5 19.6291 11.9197 19.6291 12.4375C19.6291 12.9552 20.0488 13.375 20.5666 13.375Z" fill="white"/>
<path d="M16.5 12.75C14.4285 12.75 12.7501 14.4286 12.7501 16.4999C12.7501 18.5704 14.4285 20.2502 16.5 20.2502C18.5709 20.2502 20.2499 18.5704 20.2499 16.4999C20.2499 14.4286 18.5709 12.75 16.5 12.75ZM16.5 19.0002C15.1195 19.0002 14.0001 17.8808 14.0001 16.4999C14.0001 15.119 15.1195 14 16.5 14C17.8805 14 18.9999 15.119 18.9999 16.4999C18.9999 17.8808 17.8805 19.0002 16.5 19.0002Z" fill="white"/>
</g>
<defs>
<clipPath id="clip0_1_400">
<rect width="15" height="15" fill="white" transform="translate(9 9)"/>
</clipPath>
</defs>
</svg>
