<svg width="18" height="18" viewBox="0 0 18 18" fill="none" xmlns="http://www.w3.org/2000/svg">
<path d="M14.3437 4.5V11.8125C14.3437 12.0363 14.2548 12.2509 14.0966 12.4091C13.9384 12.5674 13.7237 12.6562 13.5 12.6562C13.2762 12.6562 13.0616 12.5674 12.9033 12.4091C12.7451 12.2509 12.6562 12.0363 12.6562 11.8125V6.53906L5.09692 14.097C4.93841 14.2555 4.72343 14.3445 4.49927 14.3445C4.2751 14.3445 4.06012 14.2555 3.90161 14.097C3.7431 13.9384 3.65405 13.7235 3.65405 13.4993C3.65405 13.2751 3.7431 13.0601 3.90161 12.9016L11.4609 5.34375H6.18747C5.96369 5.34375 5.74908 5.25486 5.59085 5.09662C5.43261 4.93839 5.34372 4.72378 5.34372 4.5C5.34372 4.27622 5.43261 4.06161 5.59085 3.90338C5.74908 3.74514 5.96369 3.65625 6.18747 3.65625H13.5C13.7237 3.65625 13.9384 3.74514 14.0966 3.90338C14.2548 4.06161 14.3437 4.27622 14.3437 4.5Z" fill="#181818"/>
</svg>
